<mxfile host="app.diagrams.net" modified="2024-02-17T09:41:10.001Z" agent="Mozilla/5.0 (Windows NT 10.0; Win64; x64) AppleWebKit/537.36 (KHTML, like Gecko) Chrome/121.0.0.0 Safari/537.36" etag="faFQq4_wx97zYBoh1LlX" version="23.1.5" type="github">
  <diagram name="Сторінка-1" id="_aa1MwNTrUtcZgbh-YB0">
    <mxGraphModel dx="352" dy="750" grid="1" gridSize="10" guides="1" tooltips="1" connect="1" arrows="1" fold="1" page="1" pageScale="1" pageWidth="850" pageHeight="1100" math="0" shadow="0">
      <root>
        <mxCell id="0" />
        <mxCell id="1" parent="0" />
        <mxCell id="y9fGYAghP5PMQkq3UWg3-5" style="edgeStyle=orthogonalEdgeStyle;rounded=0;orthogonalLoop=1;jettySize=auto;html=1;entryX=0.5;entryY=1;entryDx=0;entryDy=0;" edge="1" parent="1" source="qZM3hDWD_EfuBB5bhHqb-1" target="y9fGYAghP5PMQkq3UWg3-1">
          <mxGeometry relative="1" as="geometry" />
        </mxCell>
        <mxCell id="qZM3hDWD_EfuBB5bhHqb-1" value="User" style="swimlane;fontStyle=1;align=center;verticalAlign=top;childLayout=stackLayout;horizontal=1;startSize=26;horizontalStack=0;resizeParent=1;resizeParentMax=0;resizeLast=0;collapsible=1;marginBottom=0;whiteSpace=wrap;html=1;" parent="1" vertex="1">
          <mxGeometry x="250" y="160" width="230" height="300" as="geometry" />
        </mxCell>
        <mxCell id="qZM3hDWD_EfuBB5bhHqb-2" value="- name: string&lt;br&gt;- email: string&lt;br&gt;- subsType: string&lt;br&gt;- expDate: Date&amp;amp;&amp;nbsp;" style="text;strokeColor=none;fillColor=none;align=left;verticalAlign=top;spacingLeft=4;spacingRight=4;overflow=hidden;rotatable=0;points=[[0,0.5],[1,0.5]];portConstraint=eastwest;whiteSpace=wrap;html=1;" parent="qZM3hDWD_EfuBB5bhHqb-1" vertex="1">
          <mxGeometry y="26" width="230" height="74" as="geometry" />
        </mxCell>
        <mxCell id="qZM3hDWD_EfuBB5bhHqb-3" value="" style="line;strokeWidth=1;fillColor=none;align=left;verticalAlign=middle;spacingTop=-1;spacingLeft=3;spacingRight=3;rotatable=0;labelPosition=right;points=[];portConstraint=eastwest;strokeColor=inherit;" parent="qZM3hDWD_EfuBB5bhHqb-1" vertex="1">
          <mxGeometry y="100" width="230" height="8" as="geometry" />
        </mxCell>
        <mxCell id="qZM3hDWD_EfuBB5bhHqb-4" value="+ User()&lt;br&gt;+ ~User()&lt;br&gt;+ User(name, emal, subsType, expDate)&lt;br&gt;+ getFullName(): string&lt;br&gt;&lt;br&gt;+ hasUnlimitedAccess(): bool" style="text;strokeColor=none;fillColor=none;align=left;verticalAlign=top;spacingLeft=4;spacingRight=4;overflow=hidden;rotatable=0;points=[[0,0.5],[1,0.5]];portConstraint=eastwest;whiteSpace=wrap;html=1;" parent="qZM3hDWD_EfuBB5bhHqb-1" vertex="1">
          <mxGeometry y="108" width="230" height="192" as="geometry" />
        </mxCell>
        <mxCell id="y9fGYAghP5PMQkq3UWg3-1" value="SubscribtionTypes" style="swimlane;fontStyle=1;align=center;verticalAlign=top;childLayout=stackLayout;horizontal=1;startSize=26;horizontalStack=0;resizeParent=1;resizeParentMax=0;resizeLast=0;collapsible=1;marginBottom=0;whiteSpace=wrap;html=1;" vertex="1" parent="1">
          <mxGeometry x="285" y="50" width="160" height="68" as="geometry" />
        </mxCell>
        <mxCell id="y9fGYAghP5PMQkq3UWg3-2" value="BASIC&amp;nbsp;&lt;br&gt;PREMIUM&amp;nbsp;" style="text;strokeColor=none;fillColor=none;align=left;verticalAlign=top;spacingLeft=4;spacingRight=4;overflow=hidden;rotatable=0;points=[[0,0.5],[1,0.5]];portConstraint=eastwest;whiteSpace=wrap;html=1;" vertex="1" parent="y9fGYAghP5PMQkq3UWg3-1">
          <mxGeometry y="26" width="160" height="34" as="geometry" />
        </mxCell>
        <mxCell id="y9fGYAghP5PMQkq3UWg3-3" value="" style="line;strokeWidth=1;fillColor=none;align=left;verticalAlign=middle;spacingTop=-1;spacingLeft=3;spacingRight=3;rotatable=0;labelPosition=right;points=[];portConstraint=eastwest;strokeColor=inherit;" vertex="1" parent="y9fGYAghP5PMQkq3UWg3-1">
          <mxGeometry y="60" width="160" height="8" as="geometry" />
        </mxCell>
      </root>
    </mxGraphModel>
  </diagram>
</mxfile>
